<?xml version="1.0" encoding="UTF-8"?>
<svg width="71px" height="74px" viewBox="0 0 71 74" version="1.1" xmlns="http://www.w3.org/2000/svg" xmlns:xlink="http://www.w3.org/1999/xlink">
    <!-- Generator: Sketch 55 (78076) - https://sketchapp.com -->
    <title>Group 6</title>
    <desc>Created with Sketch.</desc>
    <defs>
        <polygon id="path-1" points="0 0.256184783 70.7347472 0.256184783 70.7347472 73.5977054 0 73.5977054"></polygon>
    </defs>
    <g id="D2" stroke="none" stroke-width="1" fill="none" fill-rule="evenodd">
        <g id="Home---single-page" transform="translate(-685.000000, -1967.000000)">
            <g id="Group-6" transform="translate(685.000000, 1967.000000)">
                <g id="Group-4">
                    <g id="Group-3" transform="translate(0.000000, 0.145989)">
                        <mask id="mask-2" fill="white">
                            <use xlink:href="#path-1"></use>
                        </mask>
                        <g id="Clip-2"></g>
                        <path d="M49.2412921,70.4144989 C39.1054438,70.4144989 30.8885899,62.1297163 30.8885899,51.910075 C30.8885899,41.6904337 39.1054438,33.4060533 49.2412921,33.4060533 C59.3771404,33.4060533 67.5935955,41.6904337 67.5935955,51.910075 C67.582427,62.1252924 59.3723539,70.403238 49.2412921,70.4144989 L49.2412921,70.4144989 Z M7.90852247,62.6436946 C5.27394382,62.6436946 3.12958427,60.4261076 3.12958427,57.7697489 L3.12958427,23.5182054 L57.894118,23.5182054 L57.894118,32.0776728 C55.170191,30.8719554 52.2276798,30.2497924 49.2532584,30.2509989 C37.4082247,30.2509989 27.7653876,39.9952707 27.7653876,51.9386293 C27.7594045,55.6905098 28.7214944,59.3796511 30.5567247,62.6436946 L7.90852247,62.6436946 Z M7.90852247,10.423825 L8.76251685,10.423825 L8.76251685,13.8020859 C8.76251685,14.6731946 9.48408427,15.3142598 10.3480506,15.3142598 L18.5816573,15.3142598 C19.4456236,15.3142598 20.1847416,14.6731946 20.1847416,13.8020859 L20.1847416,10.423825 L40.8389607,10.423825 L40.8389607,13.8020859 C40.815427,14.614075 41.4492416,15.2913359 42.254573,15.3142598 C42.2832921,15.3150641 42.3120112,15.3150641 42.3407303,15.3142598 L50.5743371,15.3142598 C51.3920337,15.3420098 52.0765056,14.6957163 52.1040281,13.8712598 C52.1048258,13.848738 52.1048258,13.825412 52.1048258,13.8020859 L52.1048258,10.423825 L53.0924438,10.423825 C55.7449719,10.4503685 57.8841461,12.6213033 57.894118,15.2957598 L57.894118,20.3627489 L3.12958427,20.3627489 L3.12958427,15.2957598 C3.12958427,12.6394011 5.27394382,10.423825 7.90852247,10.423825 L7.90852247,10.423825 Z M11.8917022,6.01439022 C11.9064607,4.60074891 13.0552247,3.46702065 14.4572753,3.48190109 L14.4648539,3.48190109 C15.8720899,3.48190109 17.0551573,4.59592283 17.0551573,6.01439022 L17.0551573,12.1588033 L11.8917022,12.1588033 L11.8917022,6.01439022 Z M43.9681461,6.01439022 C43.9442135,4.64016196 45.0291573,3.50683587 46.392118,3.48230326 C46.4140562,3.48190109 46.4359944,3.48190109 46.4575337,3.48190109 C47.8336573,3.46742283 48.9604831,4.58023804 48.9752416,5.9669337 C48.9752416,5.98302065 48.9752416,5.99870543 48.9752416,6.01439022 L48.9752416,12.1588033 L43.9681461,12.1588033 L43.9681461,6.01439022 Z M61.0237022,33.7929446 L61.0237022,15.2957598 C61.0237022,10.8995967 57.4529607,7.26836848 53.0924438,7.26836848 L52.1048258,7.26836848 L52.1048258,6.01439022 C52.1048258,2.87783587 49.5827303,0.334890217 46.4718933,0.334890217 C43.3606573,0.334890217 40.8389607,2.87783587 40.8389607,6.01439022 L40.8389607,7.26836848 L20.1847416,7.26836848 L20.1847416,6.01439022 C20.1847416,2.83440109 17.6275449,0.25606413 14.4736292,0.25606413 C11.3193146,0.25606413 8.76251685,2.83440109 8.76251685,6.01439022 L8.76251685,7.26836848 L7.90852247,7.26836848 C3.54840449,7.26836848 0,10.8995967 0,15.2957598 L0,57.7697489 C0,62.165912 3.54840449,65.7987489 7.90852247,65.7987489 L32.7242191,65.7987489 C36.8150955,70.7330207 42.8624607,73.5884554 49.2412921,73.5977054 C61.085927,73.5977054 70.7347472,63.8675098 70.7347472,51.9241511 C70.7351461,44.3548359 66.8129944,37.6666837 61.0237022,33.7929446 L61.0237022,33.7929446 Z" id="Fill-1" fill="#F27268" mask="url(#mask-2)"></path>
                    </g>
                    <path d="M56.6125281,52.0616543 L49.7574382,52.0616543 L49.7574382,42.5687413 C49.7574382,41.6972304 49.0570112,40.9914152 48.1930449,40.9914152 C47.3286798,40.9914152 46.6282528,41.6972304 46.6282528,42.5687413 L46.6282528,53.6377739 C46.6418146,54.5149152 47.3522135,55.2187196 48.2221629,55.2171109 L56.6125281,55.2171109 C57.4768933,55.2171109 58.1773202,54.5104913 58.1773202,53.6393826 C58.1773202,52.7678717 57.4768933,52.0616543 56.6125281,52.0616543" id="Fill-4" fill="#2D675D"></path>
                </g>
            </g>
        </g>
    </g>
</svg>