<?xml version="1.0" encoding="UTF-8"?>
<svg width="51px" height="93px" viewBox="0 0 51 93" version="1.1" xmlns="http://www.w3.org/2000/svg" xmlns:xlink="http://www.w3.org/1999/xlink">
    <!-- Generator: Sketch 55 (78076) - https://sketchapp.com -->
    <title>Group 71</title>
    <desc>Created with Sketch.</desc>
    <defs>
        <path d="M0.751333333,0.72190099 L0.751333333,6.18219802 L2.25037037,6.18219802 C2.78846296,6.18219802 3.21857407,6.03026733 3.53798148,5.72824752 L3.53798148,5.72824752 C3.8592037,5.42530693 4.018,5.05422772 4.018,4.61593069 L4.018,4.61593069 C4.018,4.40046535 3.97535185,4.20065347 3.89096296,4.01649505 L3.89096296,4.01649505 C3.80566667,3.83233663 3.6877037,3.67580198 3.53435185,3.5450495 L3.53435185,3.5450495 C3.381,3.41429703 3.16322222,3.3019604 2.88011111,3.20527723 L2.88011111,3.20527723 C3.10877778,3.0809703 3.28209259,2.92075248 3.40005556,2.72094059 L3.40005556,2.72094059 C3.51801852,2.52112871 3.577,2.30105941 3.577,2.05889109 L3.577,2.05889109 C3.577,1.79830693 3.50985185,1.56258416 3.37555556,1.3480396 L3.37555556,1.3480396 C3.24035185,1.13625743 3.05705556,0.977881188 2.82475926,0.875673267 L2.82475926,0.875673267 C2.59155556,0.772544554 2.25944444,0.72190099 1.82661111,0.72190099 L1.82661111,0.72190099 L0.751333333,0.72190099 Z M1.2857963,1.25688119 L1.91735185,1.25688119 C2.29937037,1.25688119 2.57703704,1.32686139 2.75216667,1.46958416 L2.75216667,1.46958416 C2.9272963,1.61230693 3.0135,1.80843564 3.0135,2.05889109 L3.0135,2.05889109 C3.0135,2.2430495 2.96177778,2.41247525 2.85742593,2.56532673 L2.85742593,2.56532673 C2.75398148,2.71633663 2.61151852,2.82867327 2.43366667,2.89865347 L2.43366667,2.89865347 C2.25581481,2.96955446 1.97633333,3.00546535 1.59703704,3.00546535 L1.59703704,3.00546535 L1.2857963,3.00546535 L1.2857963,1.25688119 Z M1.2857963,3.55425743 L1.59431481,3.55425743 C2.05437037,3.55425743 2.37831481,3.57727723 2.56433333,3.62055446 L2.56433333,3.62055446 C2.84109259,3.68777228 3.05887037,3.81115842 3.21675926,3.99255446 L3.21675926,3.99255446 C3.37646296,4.1730297 3.4545,4.38481188 3.4545,4.6269802 L3.4545,4.6269802 C3.4545,4.82034653 3.39914815,4.99990099 3.28572222,5.16564356 L3.28572222,5.16564356 C3.1732037,5.33138614 3.02438889,5.45293069 2.83837037,5.53119802 L2.83837037,5.53119802 C2.65235185,5.60946535 2.36016667,5.64813861 1.96181481,5.64813861 L1.96181481,5.64813861 L1.2857963,5.64813861 L1.2857963,3.55425743 Z" id="path-1"></path>
        <path d="M1.97724074,1.01655446 C1.54622222,1.27069307 1.20594444,1.62243564 0.9555,2.06994059 L0.9555,2.06994059 C0.705962963,2.51928713 0.580740741,3.00546535 0.580740741,3.53123762 L0.580740741,3.53123762 C0.580740741,4.31943564 0.855685185,4.99161386 1.40375926,5.54685149 L1.40375926,5.54685149 C1.95183333,6.10208911 2.62331481,6.37924752 3.42092593,6.37924752 L3.42092593,6.37924752 C4.20674074,6.37924752 4.87459259,6.10024752 5.42175926,5.54224752 L5.42175926,5.54224752 C5.96801852,4.98516832 6.24114815,4.30654455 6.24114815,3.50453465 L6.24114815,3.50453465 C6.24114815,2.69792079 5.96711111,2.01745545 5.41994444,1.46405941 L5.41994444,1.46405941 C4.87096296,0.911584158 4.19040741,0.635346535 3.37646296,0.635346535 L3.37646296,0.635346535 C2.87466667,0.635346535 2.40825926,0.762415842 1.97724074,1.01655446 L1.97724074,1.01655446 Z M1.8002963,5.17669307 C1.35748148,4.72826733 1.13607407,4.17947525 1.13607407,3.52939604 L1.13607407,3.52939604 C1.13607407,3.09017822 1.2367963,2.69239604 1.43642593,2.33512871 L1.43642593,2.33512871 C1.63605556,1.97786139 1.91372222,1.69425743 2.26942593,1.48339604 L2.26942593,1.48339604 C2.62603704,1.27253465 3.00351852,1.16664356 3.40096296,1.16664356 L3.40096296,1.16664356 C3.80475926,1.16664356 4.18768519,1.27253465 4.54883333,1.48339604 L4.54883333,1.48339604 C4.90998148,1.69425743 5.18946296,1.97509901 5.38909259,2.32592079 L5.38909259,2.32592079 C5.58690741,2.67674257 5.68581481,3.06992079 5.68581481,3.50361386 L5.68581481,3.50361386 C5.68581481,3.94006931 5.58690741,4.33693069 5.38909259,4.69419802 L5.38909259,4.69419802 C5.18946296,5.05146535 4.9127037,5.33322772 4.55790741,5.53856436 L4.55790741,5.53856436 C4.20401852,5.74482178 3.81746296,5.8479505 3.40096296,5.8479505 L3.40096296,5.8479505 C2.77575926,5.8479505 2.24311111,5.62419802 1.8002963,5.17669307 L1.8002963,5.17669307 Z" id="path-3"></path>
        <polygon id="path-5" points="4.10238889 0.76609901 4.10238889 4.96859406 0.508148148 0.76609901 0.391092593 0.76609901 0.391092593 6.24849505 0.948240741 6.24849505 0.948240741 2.09664356 4.51525926 6.24849505 4.63503704 6.24849505 4.63503704 0.76609901"></polygon>
        <path d="M1.31392593,1.59020792 C0.83662963,2.1270297 0.599796296,2.75593069 0.599796296,3.47967327 L0.599796296,3.47967327 C0.599796296,4.00728713 0.728648148,4.4989901 0.986351852,4.95478218 L0.986351852,4.95478218 C1.24314815,5.41149505 1.59431481,5.76323762 2.03803704,6.00908911 L2.03803704,6.00908911 C2.47994444,6.25586139 2.98446296,6.37924752 3.54977778,6.37924752 L3.54977778,6.37924752 C4.07698148,6.37924752 4.53794444,6.2659901 4.92994444,6.04039604 L4.92994444,6.04039604 C5.32285185,5.81572277 5.64316667,5.48884158 5.88907407,5.05975248 L5.88907407,5.05975248 C6.13588889,4.63066337 6.2592963,4.17671287 6.2592963,3.69882178 L6.2592963,3.69882178 L6.25203704,3.46862376 L3.51257407,3.46862376 L3.51257407,4.44650495 L5.08964815,4.44650495 C4.93901852,4.76786139 4.7402963,5.00450495 4.4952963,5.15643564 L4.4952963,5.15643564 C4.24848148,5.30744554 3.94631481,5.3829505 3.5887963,5.3829505 L3.5887963,5.3829505 C3.038,5.3829505 2.57431481,5.19971287 2.19864815,4.83323762 L2.19864815,4.83323762 C1.82298148,4.46584158 1.63514815,4.01833663 1.63514815,3.49072277 L1.63514815,3.49072277 C1.63514815,2.98060396 1.81572222,2.5459901 2.17868519,2.18872277 L2.17868519,2.18872277 C2.54074074,1.83237624 2.98990741,1.65466337 3.52618519,1.65466337 L3.52618519,1.65466337 C4.14140741,1.65466337 4.67859259,1.89959406 5.14137037,2.39037624 L5.14137037,2.39037624 L5.87092593,1.66479208 C5.53790741,1.30384158 5.19672222,1.04878218 4.84918519,0.899613861 L4.84918519,0.899613861 C4.43631481,0.723742574 3.9935,0.635346535 3.52074074,0.635346535 L3.52074074,0.635346535 C2.61424074,0.635346535 1.87924074,0.953940594 1.31392593,1.59020792 L1.31392593,1.59020792 Z" id="path-7"></path>
        <path d="M2.26398148,0.941049505 C1.82388889,1.19979208 1.47816667,1.55153465 1.22681481,1.99443564 L1.22681481,1.99443564 C0.974555556,2.43641584 0.848425926,2.92259406 0.848425926,3.45020792 L0.848425926,3.45020792 C0.848425926,4.23840594 1.11883333,4.91979208 1.65964815,5.49160396 L1.65964815,5.49160396 C2.19955556,6.06525743 2.8782963,6.35162376 3.69496296,6.35162376 L3.69496296,6.35162376 C4.47442593,6.35162376 5.13864815,6.07262376 5.68490741,5.51554455 L5.68490741,5.51554455 C6.23116667,4.95662376 6.5042963,4.27431683 6.5042963,3.46954455 L6.5042963,3.46954455 C6.5042963,2.65648515 6.22753704,1.96681188 5.67401852,1.40052475 L5.67401852,1.40052475 C5.11959259,0.835158416 4.45809259,0.552475248 3.6877037,0.552475248 L3.6877037,0.552475248 C3.17864815,0.552475248 2.70588889,0.682306931 2.26398148,0.941049505 L2.26398148,0.941049505 Z M2.54074074,4.9179505 C2.10790741,4.56344554 1.89285185,4.0800297 1.89285185,3.46954455 L1.89285185,3.46954455 C1.89285185,2.92167327 2.06344444,2.46864356 2.40644444,2.11413861 L2.40644444,2.11413861 C2.74944444,1.75871287 3.1732037,1.581 3.67681481,1.581 L3.67681481,1.581 C4.17588889,1.581 4.59874074,1.76331683 4.94718519,2.1279505 L4.94718519,2.1279505 C5.29472222,2.49166337 5.46894444,2.93640594 5.46894444,3.46217822 L5.46894444,3.46217822 C5.46894444,3.98979208 5.29562963,4.43361386 4.95081481,4.79456436 L4.95081481,4.79456436 C4.60509259,5.15367327 4.18677778,5.33506931 3.69496296,5.33506931 L3.69496296,5.33506931 C3.26122222,5.33506931 2.87648148,5.19510891 2.54074074,4.9179505 L2.54074074,4.9179505 Z" id="path-9"></path>
        <path d="M0.630648148,1.49628713 C0.629740741,1.88209901 0.939166667,2.20253465 1.30938889,2.2089802 L1.30938889,2.2089802 L1.32935185,2.2089802 C1.70048148,2.20437624 2.00718519,1.90327723 2.00990741,1.51654455 L2.00990741,1.51654455 C2.01081481,1.12612871 1.69866667,0.804772277 1.31483333,0.803851485 L1.31483333,0.803851485 C0.935537037,0.802930693 0.631555556,1.11139604 0.630648148,1.49628713 L0.630648148,1.49628713 Z M0.746796296,1.4990495 C0.747703704,1.17585149 1.00177778,0.918029703 1.31846296,0.918029703 L1.31846296,0.918029703 C1.63242593,0.918950495 1.89103704,1.18690099 1.89012963,1.5110198 L1.89012963,1.5110198 C1.88922222,1.83329703 1.63696296,2.08927723 1.31937037,2.08927723 L1.31937037,2.08927723 C1.31937037,2.08927723 1.31755556,2.08927723 1.31664815,2.08927723 L1.31664815,2.08927723 C1.00359259,2.08743564 0.746796296,1.82224752 0.746796296,1.4990495 L0.746796296,1.4990495 Z" id="path-11"></path>
        <path d="M0.732277778,0.422643564 C0.722296296,0.483415842 0.705055556,0.542346535 0.691444444,0.601277228 L0.691444444,0.601277228 C0.670574074,0.533138614 0.656055556,0.465920792 0.639722222,0.399623762 L0.639722222,0.399623762 C0.637,0.390415842 0.628833333,0.377524752 0.624296296,0.377524752 L0.624296296,0.377524752 C0.579833333,0.374762376 0.537185185,0.375683168 0.494537037,0.375683168 L0.494537037,0.375683168 L0.494537037,0.763336634 L0.580740741,0.763336634 L0.580740741,0.492623762 C0.603425926,0.564445545 0.618851852,0.636267327 0.636092593,0.709009901 L0.636092593,0.709009901 C0.648796296,0.76609901 0.649703704,0.765178218 0.703240741,0.76609901 L0.703240741,0.76609901 C0.722296296,0.76609901 0.730462963,0.760574257 0.734092593,0.738475248 L0.734092593,0.738475248 C0.742259259,0.69519802 0.754055556,0.652841584 0.764037037,0.610485149 L0.764037037,0.610485149 C0.772203704,0.569970297 0.782185185,0.530376238 0.792166667,0.490782178 L0.792166667,0.490782178 C0.793981481,0.490782178 0.796703704,0.49170297 0.797611111,0.49170297 L0.797611111,0.49170297 L0.797611111,0.763336634 L0.881092593,0.763336634 L0.881092593,0.375683168 C0.848425926,0.375683168 0.816666667,0.378445545 0.785814815,0.374762376 L0.785814815,0.374762376 C0.781277778,0.373841584 0.778555556,0.373841584 0.774925926,0.373841584 L0.774925926,0.373841584 C0.749518519,0.373841584 0.73862963,0.388574257 0.732277778,0.422643564 L0.732277778,0.422643564 Z" id="path-13"></path>
        <polygon id="path-15" points="0.888351852 0.374762376 0.888351852 0.46960396 1.01901852 0.46960396 1.01901852 0.76609901 1.14787037 0.76609901 1.14787037 0.46960396 1.274 0.46960396 1.274 0.374762376"></polygon>
        <path d="M0.580740741,0.702564356 L0.580740741,2.13807921 L1.08783376,2.13807921 C1.23483376,2.13807921 1.34878725,2.12242574 1.43083376,2.09019802 L1.43083376,2.09019802 C1.51288028,2.05612871 1.5823919,2.00732673 1.63481051,1.94010891 L1.63481051,1.94010891 C1.68722911,1.87381188 1.71343842,1.80014851 1.71343842,1.7209604 L1.71343842,1.7209604 C1.71343842,1.63624752 1.68722911,1.56350495 1.63595004,1.50181188 L1.63595004,1.50181188 C1.58467097,1.44011881 1.50490353,1.38947525 1.39550818,1.3480396 L1.39550818,1.3480396 C1.46160121,1.30936634 1.50832214,1.2670099 1.53681051,1.22281188 L1.53681051,1.22281188 C1.56529888,1.17769307 1.58011283,1.12889109 1.58011283,1.07364356 L1.58011283,1.07364356 C1.58011283,0.989851485 1.54934539,0.917108911 1.4843919,0.855415842 L1.4843919,0.855415842 C1.42057795,0.79280198 1.33625237,0.751366337 1.22571748,0.727425743 L1.22571748,0.727425743 C1.15164772,0.710851485 1.03085702,0.702564356 0.866763997,0.702564356 L0.866763997,0.702564356 L0.580740741,0.702564356 Z M0.924880276,0.964069307 L1.013764,0.964069307 C1.0923919,0.964069307 1.15278725,0.976039604 1.1903919,1.00274257 L1.1903919,1.00274257 C1.22913609,1.02944554 1.24736865,1.06535644 1.24736865,1.10955446 L1.24736865,1.10955446 C1.24736865,1.15743564 1.22685702,1.19610891 1.1869733,1.22373267 L1.1869733,1.22373267 C1.14595004,1.25135644 1.08327562,1.26608911 1.00008958,1.26608911 L1.00008958,1.26608911 L0.924880276,1.26608911 L0.924880276,0.964069307 Z M0.924880276,1.51009901 L0.997810508,1.51009901 C1.13227562,1.51009901 1.22913609,1.52759406 1.28725237,1.56442574 L1.28725237,1.56442574 C1.34536865,1.59941584 1.37499655,1.64821782 1.37499655,1.71083168 L1.37499655,1.71083168 C1.37499655,1.76515842 1.34992679,1.80659406 1.29978725,1.83605941 L1.29978725,1.83605941 C1.25078725,1.86368317 1.15392679,1.87841584 1.01148493,1.87841584 L1.01148493,1.87841584 L0.924880276,1.87841584 L0.924880276,1.51009901 Z" id="path-17"></path>
        <polygon id="path-19" points="0.181481481 0.702564356 0.181481481 2.13807921 0.953685185 2.13807921 0.953685185 1.87012871 0.449166667 1.87012871 0.449166667 1.49260396 0.953685185 1.49260396 0.953685185 1.23017822 0.449166667 1.23017822 0.449166667 0.970514851 0.953685185 0.970514851 0.953685185 0.702564356"></polygon>
        <path d="M1.127,0.702564356 L0.560777778,2.13807921 L0.851148148,2.13807921 L0.970925926,1.84250495 L1.56981481,1.84250495 L1.68505556,2.13807921 L1.97542593,2.13807921 L1.41011111,0.702564356 L1.127,0.702564356 Z M1.27037037,1.08285149 L1.46637037,1.57639604 L1.07437037,1.57639604 L1.27037037,1.08285149 Z" id="path-21"></path>
        <path d="M1.2377037,0.800168317 L1.2377037,1.69241584 C1.2377037,1.78817822 1.23135185,1.85355446 1.21864815,1.88670297 L1.21864815,1.88670297 C1.20594444,1.92169307 1.18235185,1.94931683 1.14877778,1.97141584 L1.14877778,1.97141584 C1.11611111,1.99535644 1.07618519,2.00548515 1.03081481,2.00548515 L1.03081481,2.00548515 C0.987259259,2.00548515 0.950962963,1.99535644 0.919203704,1.9760198 L0.919203704,1.9760198 C0.888351852,1.95576238 0.866574074,1.92813861 0.852962963,1.89591089 L0.852962963,1.89591089 C0.839351852,1.86276238 0.833907407,1.80659406 0.833907407,1.72648515 L0.833907407,1.72648515 L0.833907407,0.800168317 L0.571666667,0.800168317 L0.571666667,1.65374257 C0.571666667,1.82593069 0.587092593,1.94655446 0.618851852,2.01837624 L0.618851852,2.01837624 C0.650611111,2.09019802 0.703240741,2.1500495 0.776740741,2.19793069 L0.776740741,2.19793069 C0.850240741,2.24489109 0.937351852,2.26975248 1.03625926,2.26975248 L1.03625926,2.26975248 C1.11248148,2.26975248 1.17872222,2.25686139 1.23588889,2.232 L1.23588889,2.232 C1.29305556,2.20713861 1.34296296,2.16846535 1.38651852,2.1159802 L1.38651852,2.1159802 C1.43098148,2.06349505 1.46001852,2.0110099 1.47635185,1.95392079 L1.47635185,1.95392079 C1.49087037,1.89775248 1.49903704,1.79830693 1.49903704,1.65374257 L1.49903704,1.65374257 L1.49903704,0.800168317 L1.2377037,0.800168317 Z" id="path-23"></path>
        <polygon id="path-25" points="0.147 0.702564356 0.147 0.972356436 0.394722222 0.972356436 0.394722222 2.13807921 0.664222222 2.13807921 0.664222222 0.972356436 0.918296296 0.972356436 0.918296296 0.702564356"></polygon>
        <polygon id="path-27" points="1.25585185 0.702564356 0.979092593 1.21912871 0.701425926 0.702564356 0.397444444 0.702564356 0.833907407 1.51654455 0.833907407 2.13807921 1.11974074 2.13807921 1.11974074 1.51654455 1.55438889 0.702564356"></polygon>
        <path d="M0.505425926,0.808455446 C0.384740741,0.877514851 0.291277778,0.972356436 0.222314815,1.09205941 L0.222314815,1.09205941 C0.153351852,1.21176238 0.119777778,1.34251485 0.119777778,1.48523762 L0.119777778,1.48523762 C0.119777778,1.69886139 0.193277778,1.88209901 0.341185185,2.03679208 L0.341185185,2.03679208 C0.488185185,2.19148515 0.673296296,2.26975248 0.896518519,2.26975248 L0.896518519,2.26975248 C1.10885185,2.26975248 1.28942593,2.19332673 1.43914815,2.04323762 L1.43914815,2.04323762 C1.58887037,1.89314851 1.66327778,1.7089901 1.66327778,1.49076238 L1.66327778,1.49076238 C1.66327778,1.27069307 1.58796296,1.08377228 1.43551852,0.932762376 L1.43551852,0.932762376 C1.28488889,0.778990099 1.10340741,0.702564356 0.893796296,0.702564356 L0.893796296,0.702564356 C0.75587037,0.702564356 0.627018519,0.737554455 0.505425926,0.808455446 L0.505425926,0.808455446 Z M0.580740741,1.88209901 C0.462777778,1.78633663 0.403796296,1.65558416 0.403796296,1.49076238 L0.403796296,1.49076238 C0.403796296,1.34251485 0.450981481,1.2209703 0.544444444,1.12428713 L0.544444444,1.12428713 C0.637907407,1.02852475 0.754055556,0.980643564 0.891074074,0.980643564 L0.891074074,0.980643564 C1.02718519,0.980643564 1.14242593,1.02944554 1.2377037,1.1279703 L1.2377037,1.1279703 C1.33207407,1.22649505 1.38016667,1.34711881 1.38016667,1.48892079 L1.38016667,1.48892079 C1.38016667,1.63072277 1.33298148,1.75134653 1.23861111,1.8489505 L1.23861111,1.8489505 C1.14424074,1.94563366 1.02990741,1.99535644 0.896518519,1.99535644 L0.896518519,1.99535644 C0.777648148,1.99535644 0.672388889,1.95668317 0.580740741,1.88209901 L0.580740741,1.88209901 Z" id="path-29"></path>
        <polygon id="path-31" points="1.24496296 0.702564356 1.24496296 1.64729703 0.627018519 0.702564356 0.362962963 0.702564356 0.362962963 2.13807921 0.637907407 2.13807921 0.637907407 1.1970297 1.25494444 2.13807921 1.52081481 2.13807921 1.52081481 0.702564356"></polygon>
        <polygon id="path-33" points="0.0843888889 0.702564356 0.0843888889 0.972356436 0.332111111 0.972356436 0.332111111 2.13807921 0.602518519 2.13807921 0.602518519 0.972356436 0.856592593 0.972356436 0.856592593 0.702564356"></polygon>
        <polygon id="path-35" points="1.08888889 0.702564356 1.08888889 1.24491089 0.611592593 1.24491089 0.611592593 0.702564356 0.334833333 0.702564356 0.334833333 2.13807921 0.611592593 2.13807921 0.611592593 1.50917822 1.08888889 1.50917822 1.08888889 2.13807921 1.36383333 2.13807921 1.36383333 0.702564356"></polygon>
        <polygon id="path-37" points="0.193277778 0.702564356 0.193277778 2.13807921 0.964574074 2.13807921 0.964574074 1.87012871 0.459148148 1.87012871 0.459148148 1.49260396 0.964574074 1.49260396 0.964574074 1.23017822 0.459148148 1.23017822 0.459148148 0.970514851 0.964574074 0.970514851 0.964574074 0.702564356"></polygon>
        <path d="M0.630648148,0.964069307 C0.501796296,1.10863366 0.435555556,1.28174257 0.435555556,1.47879208 L0.435555556,1.47879208 C0.435555556,1.62243564 0.470944444,1.7559505 0.541722222,1.88117822 L0.541722222,1.88117822 C0.611592593,2.00548515 0.707777778,2.10216832 0.828462963,2.16846535 L0.828462963,2.16846535 C0.949148148,2.23568317 1.08616667,2.26975248 1.24042593,2.26975248 L1.24042593,2.26975248 C1.38561111,2.26975248 1.51083333,2.23844554 1.617,2.17767327 L1.617,2.17767327 C1.72407407,2.1159802 1.81027778,2.02666337 1.87833333,1.90880198 L1.87833333,1.90880198 C1.94548148,1.79186139 1.97996296,1.66939604 1.97996296,1.53864356 L1.97996296,1.53864356 L1.97724074,1.47510891 L1.23044444,1.47510891 L1.23044444,1.74213861 L1.66055556,1.74213861 C1.61972222,1.82961386 1.56527778,1.8949901 1.49812963,1.93642574 L1.49812963,1.93642574 C1.43188889,1.97694059 1.34931481,1.99719802 1.25131481,1.99719802 L1.25131481,1.99719802 C1.10068519,1.99719802 0.974555556,1.94747525 0.872018519,1.84710891 L0.872018519,1.84710891 C0.769481481,1.74674257 0.718666667,1.62611881 0.718666667,1.48155446 L0.718666667,1.48155446 C0.718666667,1.34251485 0.767666667,1.22373267 0.866574074,1.12612871 L0.866574074,1.12612871 C0.965481481,1.02944554 1.08798148,0.980643564 1.23407407,0.980643564 L1.23407407,0.980643564 C1.40103704,0.980643564 1.54803704,1.04786139 1.67416667,1.18137624 L1.67416667,1.18137624 L1.8737963,0.983405941 C1.78305556,0.884881188 1.68959259,0.81490099 1.59522222,0.775306931 L1.59522222,0.775306931 C1.4827037,0.727425743 1.36111111,0.702564356 1.23225926,0.702564356 L1.23225926,0.702564356 C0.984537037,0.702564356 0.784907407,0.790039604 0.630648148,0.964069307 L0.630648148,0.964069307 Z" id="path-39"></path>
        <path d="M0.937351852,0.808455446 C0.816666667,0.877514851 0.722296296,0.972356436 0.654240741,1.09205941 L0.654240741,1.09205941 C0.585277778,1.21176238 0.550796296,1.34251485 0.550796296,1.48523762 L0.550796296,1.48523762 C0.550796296,1.69886139 0.624296296,1.88209901 0.772203704,2.03679208 L0.772203704,2.03679208 C0.919203704,2.19148515 1.10522222,2.26975248 1.32662963,2.26975248 L1.32662963,2.26975248 C1.54077778,2.26975248 1.72135185,2.19332673 1.87016667,2.04323762 L1.87016667,2.04323762 C2.0207963,1.89314851 2.0942963,1.7089901 2.0942963,1.49076238 L2.0942963,1.49076238 C2.0942963,1.27069307 2.01988889,1.08377228 1.86744444,0.932762376 L1.86744444,0.932762376 C1.71681481,0.778990099 1.53533333,0.702564356 1.32572222,0.702564356 L1.32572222,0.702564356 C1.1877963,0.702564356 1.05712963,0.737554455 0.937351852,0.808455446 L0.937351852,0.808455446 Z M1.01266667,1.88209901 C0.894703704,1.78633663 0.835722222,1.65558416 0.835722222,1.49076238 L0.835722222,1.49076238 C0.835722222,1.34251485 0.882907407,1.2209703 0.97637037,1.12428713 L0.97637037,1.12428713 C1.06892593,1.02852475 1.18598148,0.980643564 1.323,0.980643564 L1.323,0.980643564 C1.4582037,0.980643564 1.57435185,1.02944554 1.66962963,1.1279703 L1.66962963,1.1279703 C1.764,1.22649505 1.81209259,1.34711881 1.81209259,1.48892079 L1.81209259,1.48892079 C1.81209259,1.63072277 1.76490741,1.75134653 1.66962963,1.8489505 L1.66962963,1.8489505 C1.57616667,1.94563366 1.46183333,1.99535644 1.32662963,1.99535644 L1.32662963,1.99535644 C1.20957407,1.99535644 1.10431481,1.95668317 1.01266667,1.88209901 L1.01266667,1.88209901 Z" id="path-41"></path>
    </defs>
    <g id="D2" stroke="none" stroke-width="1" fill="none" fill-rule="evenodd">
        <g id="Home---single-page" transform="translate(-304.000000, -1958.000000)">
            <g id="Group-71" transform="translate(305.000000, 1958.000000)">
                <path d="M42.7356222,91.4732347 L6.13625185,91.4732347 C3.43217778,91.4732347 1.23988148,89.248601 1.23988148,86.5046406 L1.23988148,6.80640297 C1.23988148,4.06244257 3.43217778,1.83780891 6.13625185,1.83780891 L42.7356222,1.83780891 C45.4396963,1.83780891 47.6319926,4.06244257 47.6319926,6.80640297 L47.6319926,86.5046406 C47.6319926,89.248601 45.4396963,91.4732347 42.7356222,91.4732347" id="Fill-1" fill="#F27268"></path>
                <g id="Group-5" transform="translate(7.259259, 41.435644)">
                    <mask id="mask-2" fill="white">
                        <use xlink:href="#path-1"></use>
                    </mask>
                    <g id="Clip-4"></g>
                    <polygon id="Fill-3" fill="#FFFFFF" mask="url(#mask-2)" points="0.107981481 6.8359604 4.66225926 6.8359604 4.66225926 0.0690594059 0.107981481 0.0690594059"></polygon>
                </g>
                <g id="Group-8" transform="translate(12.703704, 41.435644)">
                    <mask id="mask-4" fill="white">
                        <use xlink:href="#path-3"></use>
                    </mask>
                    <g id="Clip-7"></g>
                    <polygon id="Fill-6" fill="#FFFFFF" mask="url(#mask-4)" points="-0.0626111111 7.03208911 6.8845 7.03208911 6.8845 -0.0165742574 -0.0626111111 -0.0165742574"></polygon>
                </g>
                <g id="Group-11" transform="translate(20.870370, 41.435644)">
                    <mask id="mask-6" fill="white">
                        <use xlink:href="#path-5"></use>
                    </mask>
                    <g id="Clip-10"></g>
                    <polygon id="Fill-9" fill="#FFFFFF" mask="url(#mask-6)" points="-0.253166667 6.90133663 5.27838889 6.90133663 5.27838889 0.113257426 -0.253166667 0.113257426"></polygon>
                </g>
                <g id="Group-14" transform="translate(27.222222, 41.435644)">
                    <mask id="mask-8" fill="white">
                        <use xlink:href="#path-7"></use>
                    </mask>
                    <g id="Clip-13"></g>
                    <polygon id="Fill-12" fill="#FFFFFF" mask="url(#mask-8)" points="-0.0435555556 7.03208911 6.90264815 7.03208911 6.90264815 -0.0165742574 -0.0435555556 -0.0165742574"></polygon>
                </g>
                <g id="Group-17" transform="translate(34.481481, 41.435644)">
                    <mask id="mask-10" fill="white">
                        <use xlink:href="#path-9"></use>
                    </mask>
                    <g id="Clip-16"></g>
                    <polygon id="Fill-15" fill="#FFFFFF" mask="url(#mask-10)" points="0.205981481 7.00446535 7.14674074 7.00446535 7.14674074 -0.0994455446 0.205981481 -0.0994455446"></polygon>
                </g>
                <g id="Group-20" transform="translate(39.925926, 40.514851)">
                    <mask id="mask-12" fill="white">
                        <use xlink:href="#path-11"></use>
                    </mask>
                    <g id="Clip-19"></g>
                    <polygon id="Fill-18" fill="#FEFEFE" mask="url(#mask-12)" points="-0.0127037037 2.86182178 2.65235185 2.86182178 2.65235185 0.151930693 -0.0127037037 0.151930693"></polygon>
                </g>
                <g id="Group-23" transform="translate(40.833333, 41.435644)">
                    <mask id="mask-14" fill="white">
                        <use xlink:href="#path-13"></use>
                    </mask>
                    <g id="Clip-22"></g>
                    <polygon id="Fill-21" fill="#FEFEFE" mask="url(#mask-14)" points="-0.147 1.41894059 1.52535185 1.41894059 1.52535185 -0.278079208 -0.147 -0.278079208"></polygon>
                </g>
                <g id="Group-26" transform="translate(39.925926, 41.435644)">
                    <mask id="mask-16" fill="white">
                        <use xlink:href="#path-15"></use>
                    </mask>
                    <g id="Clip-25"></g>
                    <polygon id="Fill-24" fill="#FEFEFE" mask="url(#mask-16)" points="0.245 1.41894059 1.91735185 1.41894059 1.91735185 -0.278079208 0.245 -0.278079208"></polygon>
                </g>
                <g id="Group-29" transform="translate(12.703704, 49.722772)">
                    <mask id="mask-18" fill="white">
                        <use xlink:href="#path-17"></use>
                    </mask>
                    <g id="Clip-28"></g>
                    <polygon id="Fill-27" fill="#FFFFFF" mask="url(#mask-18)" points="-0.0626111111 2.79092079 2.12424074 2.79092079 2.12424074 0.0497227723 -0.0626111111 0.0497227723"></polygon>
                </g>
                <g id="Group-32" transform="translate(14.518519, 49.722772)">
                    <mask id="mask-20" fill="white">
                        <use xlink:href="#path-19"></use>
                    </mask>
                    <g id="Clip-31"></g>
                    <polygon id="Fill-30" fill="#FFFFFF" mask="url(#mask-20)" points="-0.46187037 2.79092079 1.59703704 2.79092079 1.59703704 0.0497227723 -0.46187037 0.0497227723"></polygon>
                </g>
                <g id="Group-35" transform="translate(15.425926, 49.722772)">
                    <mask id="mask-22" fill="white">
                        <use xlink:href="#path-21"></use>
                    </mask>
                    <g id="Clip-34"></g>
                    <polygon id="Fill-33" fill="#FFFFFF" mask="url(#mask-22)" points="-0.0825740741 2.79092079 2.61968519 2.79092079 2.61968519 0.0497227723 -0.0825740741 0.0497227723"></polygon>
                </g>
                <g id="Group-38" transform="translate(17.240741, 49.722772)">
                    <mask id="mask-24" fill="white">
                        <use xlink:href="#path-23"></use>
                    </mask>
                    <g id="Clip-37"></g>
                    <polygon id="Fill-36" fill="#FFFFFF" mask="url(#mask-24)" points="-0.0716851852 2.92167327 2.14238889 2.92167327 2.14238889 0.146405941 -0.0716851852 0.146405941"></polygon>
                </g>
                <g id="Group-41" transform="translate(19.055556, 49.722772)">
                    <mask id="mask-26" fill="white">
                        <use xlink:href="#path-25"></use>
                    </mask>
                    <g id="Clip-40"></g>
                    <polygon id="Fill-39" fill="#FFFFFF" mask="url(#mask-26)" points="-0.496351852 2.79092079 1.56255556 2.79092079 1.56255556 0.0497227723 -0.496351852 0.0497227723"></polygon>
                </g>
                <g id="Group-44" transform="translate(19.962963, 49.722772)">
                    <mask id="mask-28" fill="white">
                        <use xlink:href="#path-27"></use>
                    </mask>
                    <g id="Clip-43"></g>
                    <polygon id="Fill-42" fill="#FFFFFF" mask="url(#mask-28)" points="-0.245907407 2.79092079 2.19774074 2.79092079 2.19774074 0.0497227723 -0.245907407 0.0497227723"></polygon>
                </g>
                <g id="Group-47" transform="translate(22.685185, 49.722772)">
                    <mask id="mask-30" fill="white">
                        <use xlink:href="#path-29"></use>
                    </mask>
                    <g id="Clip-46"></g>
                    <polygon id="Fill-45" fill="#FFFFFF" mask="url(#mask-30)" points="-0.523574074 2.92167327 2.30662963 2.92167327 2.30662963 0.0497227723 -0.523574074 0.0497227723"></polygon>
                </g>
                <g id="Group-50" transform="translate(24.500000, 49.722772)">
                    <mask id="mask-32" fill="white">
                        <use xlink:href="#path-31"></use>
                    </mask>
                    <g id="Clip-49"></g>
                    <polygon id="Fill-48" fill="#FFFFFF" mask="url(#mask-32)" points="-0.280388889 2.79092079 2.16325926 2.79092079 2.16325926 0.0497227723 -0.280388889 0.0497227723"></polygon>
                </g>
                <g id="Group-53" transform="translate(27.222222, 49.722772)">
                    <mask id="mask-34" fill="white">
                        <use xlink:href="#path-33"></use>
                    </mask>
                    <g id="Clip-52"></g>
                    <polygon id="Fill-51" fill="#FFFFFF" mask="url(#mask-34)" points="-0.558962963 2.79092079 1.49994444 2.79092079 1.49994444 0.0497227723 -0.558962963 0.0497227723"></polygon>
                </g>
                <g id="Group-56" transform="translate(28.129630, 49.722772)">
                    <mask id="mask-36" fill="white">
                        <use xlink:href="#path-35"></use>
                    </mask>
                    <g id="Clip-55"></g>
                    <polygon id="Fill-54" fill="#FFFFFF" mask="url(#mask-36)" points="-0.307611111 2.79092079 2.00809259 2.79092079 2.00809259 0.0497227723 -0.307611111 0.0497227723"></polygon>
                </g>
                <g id="Group-59" transform="translate(29.944444, 49.722772)">
                    <mask id="mask-38" fill="white">
                        <use xlink:href="#path-37"></use>
                    </mask>
                    <g id="Clip-58"></g>
                    <polygon id="Fill-57" fill="#FFFFFF" mask="url(#mask-38)" points="-0.450074074 2.79092079 1.60792593 2.79092079 1.60792593 0.0497227723 -0.450074074 0.0497227723"></polygon>
                </g>
                <g id="Group-62" transform="translate(31.759259, 49.722772)">
                    <mask id="mask-40" fill="white">
                        <use xlink:href="#path-39"></use>
                    </mask>
                    <g id="Clip-61"></g>
                    <polygon id="Fill-60" fill="#FFFFFF" mask="url(#mask-40)" points="-0.207796296 2.92167327 2.62240741 2.92167327 2.62240741 0.0497227723 -0.207796296 0.0497227723"></polygon>
                </g>
                <g id="Group-65" transform="translate(33.574074, 49.722772)">
                    <mask id="mask-42" fill="white">
                        <use xlink:href="#path-41"></use>
                    </mask>
                    <g id="Clip-64"></g>
                    <polygon id="Fill-63" fill="#FFFFFF" mask="url(#mask-42)" points="-0.0925555556 2.92167327 2.73764815 2.92167327 2.73764815 0.0497227723 -0.0925555556 0.0497227723"></polygon>
                </g>
                <g id="Group-70">
                    <path d="M47.0493463,85.790198 C47.0493463,88.6225545 44.7862722,90.9190099 41.995087,90.9190099 L7.09619815,90.9190099 C4.30501296,90.9190099 2.04103148,88.6225545 2.04103148,85.790198 L2.04103148,7.20980198 C2.04103148,4.37744554 4.30501296,2.0809901 7.09619815,2.0809901 L13.7202722,2.0809901 L13.7202722,2.72554455 C13.7248093,4.17671287 14.8853833,5.34980198 16.3154574,5.34980198 L32.7758278,5.34980198 C34.2059019,5.34980198 35.3655685,4.17671287 35.371013,2.72554455 L35.371013,2.0809901 L41.995087,2.0809901 C44.7862722,2.0809901 47.0493463,4.37744554 47.0493463,7.20980198 L47.0493463,85.790198 Z M41.995087,0.46039604 L7.09619815,0.46039604 C3.42664259,0.465 0.453068519,3.48611881 0.453068519,7.20980198 L0.453068519,85.790198 C0.453068519,89.5138812 3.42664259,92.5340792 7.09619815,92.539604 L41.995087,92.539604 C45.6646426,92.5340792 48.6373093,89.5138812 48.6373093,85.790198 L48.6373093,7.20980198 C48.6373093,3.48611881 45.6646426,0.465 41.995087,0.46039604 L41.995087,0.46039604 Z" id="Fill-66" fill="#2D675D"></path>
                    <path d="M47.0493463,85.790198 C47.0493463,88.6225545 44.7862722,90.9190099 41.995087,90.9190099 L7.09619815,90.9190099 C4.30501296,90.9190099 2.04103148,88.6225545 2.04103148,85.790198 L2.04103148,7.20980198 C2.04103148,4.37744554 4.30501296,2.0809901 7.09619815,2.0809901 L13.7202722,2.0809901 L13.7202722,2.72554455 C13.7248093,4.17671287 14.8853833,5.34980198 16.3154574,5.34980198 L32.7758278,5.34980198 C34.2059019,5.34980198 35.3655685,4.17671287 35.371013,2.72554455 L35.371013,2.0809901 L41.995087,2.0809901 C44.7862722,2.0809901 47.0493463,4.37744554 47.0493463,7.20980198 L47.0493463,85.790198 Z M41.995087,0.46039604 L7.09619815,0.46039604 C3.42664259,0.465 0.453068519,3.48611881 0.453068519,7.20980198 L0.453068519,85.790198 C0.453068519,89.5138812 3.42664259,92.5340792 7.09619815,92.539604 L41.995087,92.539604 C45.6646426,92.5340792 48.6373093,89.5138812 48.6373093,85.790198 L48.6373093,7.20980198 C48.6373093,3.48611881 45.6646426,0.465 41.995087,0.46039604 Z" id="Stroke-68" stroke="#2D675D" stroke-width="0.92"></path>
                </g>
            </g>
        </g>
    </g>
</svg>